<svg width="24" height="24" viewBox="0 0 24 24" fill="none" xmlns="http://www.w3.org/2000/svg">
<g id="&#236;&#131;&#129;&#235;&#139;&#168;&#236;&#152;&#129;&#236;&#151;&#173;/UniqIcons/user/bulk/Property 44">
<g id="user circle">
<path id="Vector" opacity="0.4" d="M22 12C22 15.0134 20.6672 17.7154 18.5588 19.5488C16.8031 21.0756 14.5095 22 12 22C9.49052 22 7.19694 21.0756 5.44117 19.5488C3.33285 17.7154 2 15.0134 2 12C2 6.47715 6.47715 2 12 2C17.5228 2 22 6.47715 22 12Z" fill="#B1B8C0"/>
<g id="Vector_2">
<path d="M18.5591 19.5488C17.5656 16.8918 15.0039 15 12.0002 15C8.99662 15 6.43484 16.8918 5.44141 19.5488C7.19718 21.0756 9.49076 22 12.0002 22C14.5097 22 16.8033 21.0756 18.5591 19.5488Z" fill="#B1B8C0"/>
</g>
<circle id="Ellipse 321" cx="3" cy="3" r="3" transform="matrix(1 0 0 -1 9 13)" fill="#B1B8C0"/>
</g>
</g>
</svg>
