<svg width="22" height="22" viewBox="0 0 22 22" fill="none" xmlns="http://www.w3.org/2000/svg">
<path opacity="0.4" d="M20.1668 10.9999C20.1668 16.0625 16.0628 20.1666 11.0002 20.1666C5.93755 20.1666 1.8335 16.0625 1.8335 10.9999C1.8335 5.93731 5.93755 1.83325 11.0002 1.83325C16.0628 1.83325 20.1668 5.93731 20.1668 10.9999Z" fill="#8B95A1"/>
<path fill-rule="evenodd" clip-rule="evenodd" d="M13.1066 14.0788C13.375 14.3473 13.8103 14.3473 14.0788 14.0788C14.3473 13.8103 14.3473 13.375 14.0788 13.1065L11.9723 11L14.0788 8.89348C14.3473 8.625 14.3473 8.1897 14.0788 7.92121C13.8103 7.65273 13.375 7.65273 13.1065 7.92121L11 10.0277L8.89338 7.92109C8.62489 7.65261 8.18959 7.65261 7.9211 7.92109C7.65262 8.18958 7.65262 8.62488 7.9211 8.89336L10.0277 11L7.92109 13.1067C7.65261 13.3751 7.65261 13.8104 7.92109 14.0789C8.18958 14.3474 8.62488 14.3474 8.89336 14.0789L11 11.9723L13.1066 14.0788Z" fill="white"/>
</svg>
