<svg width="951" height="723" viewBox="0 0 951 723" fill="none" xmlns="http://www.w3.org/2000/svg">
<path d="M248.811 154C248.811 154 119.391 176.95 109.101 213.3C98.8109 249.65 79.9109 359.66 68.8509 372.53C57.7909 385.4 11.3709 398.9 9.8809 414.73C9.8809 414.73 -0.199099 461.73 26.3109 479.2C52.8209 496.67 66.2909 495.49 66.2909 495.49C66.2909 495.49 50.5909 516.01 55.5009 526.69C60.4109 537.37 66.4409 546.31 83.5209 563.11C100.601 579.91 106.741 588.44 128.401 594.83C150.061 601.22 197.041 602.34 227.651 615.3C258.261 628.26 284.801 638.07 309.151 665.59C333.501 693.11 343.791 708.49 343.791 708.49C343.791 708.49 410.661 694.74 442.281 645.64C473.901 596.54 456.991 568.26 456.991 568.26C456.991 568.26 394.851 229.74 389.021 226.31C383.191 222.88 307.461 168.79 304.971 167.95C302.481 167.11 248.811 154 248.811 154Z" fill="white"/>
<path d="M274.035 146V138.5C273.549 138.5 273.065 138.547 272.588 138.641L274.035 146ZM105.353 228.103L112.498 230.385L105.353 228.103ZM622.455 416.509C625.245 419.572 629.988 419.793 633.051 417.003C636.113 414.214 636.334 409.47 633.545 406.408L622.455 416.509ZM272.588 138.641C246.932 143.683 208.713 149.035 174.885 160.836C141.184 172.593 109.127 191.625 98.2085 225.822L112.498 230.385C121.165 203.241 147.204 186.379 179.826 174.999C212.319 163.663 248.649 158.633 275.481 153.359L272.588 138.641ZM98.2085 225.822C85.7782 264.753 80.9426 299.603 75.9973 326.626C73.4992 340.277 71.0159 351.718 67.6321 361.026C64.261 370.3 60.2022 376.859 54.9298 381.246L64.5245 392.776C72.606 386.051 77.8672 376.776 81.7295 366.151C85.5791 355.561 88.2426 343.04 90.7522 329.327C95.8224 301.621 100.446 268.13 112.498 230.385L98.2085 225.822ZM54.9298 381.246C42.8008 391.34 32.076 394.577 23.6844 396.511C19.8124 397.403 15.0828 398.262 11.6661 399.482C7.8226 400.854 3.31155 403.426 1.42292 409.084L15.6511 413.834C15.4318 414.491 14.8156 414.285 16.7102 413.608C19.0315 412.779 21.8831 412.319 27.0527 411.127C36.7446 408.894 49.9456 404.908 64.5245 392.776L54.9298 381.246ZM1.42292 409.084C0.618392 411.494 0.479049 414.324 0.502198 416.755C0.527278 419.388 0.766407 422.43 1.14426 425.684C1.90152 432.205 3.27643 440.079 4.9437 448.208L19.6378 445.194C18.0145 437.28 16.7316 429.873 16.0441 423.953C15.6996 420.987 15.5197 418.519 15.5015 416.612C15.4814 414.503 15.6747 413.763 15.6511 413.834L1.42292 409.084ZM633.545 406.408L457.185 212.8L446.095 222.901L622.455 416.509L633.545 406.408ZM289 138.5H274.035V153.5H289V138.5ZM76.761 501.205C91.2076 497.034 105.063 488.115 109.287 470.775L94.7131 467.225C92.2672 477.266 84.3226 483.409 72.6001 486.793L76.761 501.205ZM457.185 212.8C414.074 165.473 353.019 138.5 289 138.5V153.5C348.798 153.5 405.828 178.694 446.095 222.901L457.185 212.8ZM4.9437 448.208C8.37643 464.944 17.3424 480.497 29.8801 490.785C42.5435 501.177 59.0855 506.308 76.761 501.205L72.6001 486.793C60.4418 490.304 48.9085 486.996 39.3953 479.19C29.7564 471.28 22.4443 458.877 19.6378 445.194L4.9437 448.208Z" fill="#FFAE34"/>
<path d="M250.899 423.667C309.854 305.823 276.983 223.641 244.35 168.153C229.334 142.62 238.966 110.686 266.228 99.1013C298.883 85.2242 336.219 87.898 366.563 106.287L422 139.882C343.824 277.182 203.723 517.964 250.899 423.667Z" fill="#FFAE34"/>
<rect x="126" y="321" width="44" height="51" rx="22" fill="#FFAE34"/>
<path d="M47.759 429.864C52.4642 415.515 42.6616 398.643 37.1721 392C27.3695 393.55 7.17606 398.377 4.82342 405.285C1.88263 413.921 7.76421 443.813 7.76421 453.113C7.76421 462.413 41.8774 447.799 47.759 429.864Z" fill="#FFAE34"/>
<path d="M401.499 90C461.999 32 557.006 9.78522 627.475 6.18012C738.5 0.500226 823.09 58.202 862 101.002C902 145.001 929.196 212.798 937 248.002C944.804 283.205 949 321.502 941.5 382.502C936.087 426.53 902 477 848 515.5C816.271 538.122 784.29 515.271 764.378 508.784C660.066 506.576 437.778 489.702 420.5 495.001C398.903 501.625 333.742 536.863 284.5 523.001C234 508.784 218.501 460.5 223 437.5C230.871 397.263 265.03 361.885 273.999 349.5C284.5 335 298.269 321.983 314.353 253.255C330.436 184.528 340.999 148 401.499 90Z" fill="#FFAE34" stroke="white" stroke-width="10"/>
<path d="M444.203 166.802C464.564 98.2315 536.359 96.3518 587.646 86L667.866 101.152C718.354 110.689 761.631 142.96 785.176 188.629C823.662 263.282 832.855 349.624 810.949 430.707L788.491 513.835L743.239 681.333C737.378 703.024 713.299 714.106 693.011 704.449L629.458 674.196C595.862 603.505 568.984 608.169 520.51 595.273C500.265 589.887 455.28 568.976 431.718 549.879C394.499 519.713 408.999 463 401.999 463C376.021 463 373.999 438.5 373.999 421C369.12 398.333 341.537 378.279 343.558 371.768C347.029 360.588 369.009 369.284 396.773 344.439C424.537 319.595 418.753 252.515 444.203 166.802Z" fill="white"/>
<path d="M629.458 674.196C595.862 603.505 568.984 608.169 520.51 595.273C500.265 589.887 454.178 570.261 431.718 549.879C392 513.835 412.159 487.244 404 463C400.862 453.675 373 474 379.5 420C370.373 398.479 341.636 377.96 343.558 371.768C347.029 360.588 385.756 370.984 404 338.5C423 304.671 418.753 252.515 444.203 166.802C464.564 98.2315 536.359 96.3518 587.646 86L667.866 101.152C718.354 110.689 761.631 142.96 785.176 188.629V188.629C823.662 263.282 832.855 349.624 810.949 430.707L788.491 513.835" stroke="#FFAE34" stroke-width="15"/>
<path d="M404 462C420.667 466.763 473 460 504.5 422.5" stroke="#FFAE34" stroke-width="15" stroke-linecap="round"/>
<path d="M97.2712 458.199C97.2734 458.452 101.002 465.452 104.304 467.696C106.946 469.49 112.295 472.629 115.58 472.937" stroke="#FFAE34" stroke-width="15" stroke-linecap="round"/>
<rect x="468" y="280" width="41" height="56" rx="20.5" fill="#FFAE34"/>
<path d="M684.588 300.176C682.067 251.058 599.812 150.417 559 106.237L658.03 77L747.606 106.237L858.34 300.176L921 382.35C921 501.5 792.98 556 747.606 556C690.889 556 666.582 520.428 658.03 484.857C649.477 449.285 687.739 361.574 684.588 300.176Z" fill="#FFAE34"/>
<path d="M665 302C651.766 264.504 516.818 192.751 450 158.412L460.217 103.729L567.742 51L660.185 144.253L704 311L671 358C681.181 343.5 678.234 339.496 665 302Z" fill="#FFAE34"/>
<path d="M743.107 337.619C724.769 314.141 689.294 335.01 673.85 348.38L648 433C664.908 430.228 703.796 421.652 724.086 409.522C749.448 394.359 766.031 366.967 743.107 337.619Z" fill="white"/>
<path d="M66.4848 495C57.8181 503.167 45.6848 524.3 66.4848 543.5C92.4848 567.5 94.4844 597.5 192.984 607.5C271.784 615.5 326.484 677.833 343.984 708" stroke="#FFAE34" stroke-width="15"/>
<path d="M502.779 405C502.698 405.337 505.343 415.911 509 420C511.926 423.271 518.014 429.234 522.291 430.737" stroke="#FFAE34" stroke-width="15" stroke-linecap="round"/>
</svg>
